<svg xmlns="http://www.w3.org/2000/svg" width="1024" height="1024" viewBox="0 0 1024 1024">
  <rect width="1024" height="1024" fill="#F5F0EB"/>
  <!-- Red V (furthest offset — bottom-right) -->
  <path d="M765.90 331.90L765.90 331.90L765.90 344.30Q752.26 349.26 737.07 366.00Q721.88 382.74 708.86 418.08L708.86 418.08L578.04 772.10Q573.08 771.48 567.50 771.48Q561.92 771.48 556.34 771.48L556.34 771.48Q551.38 771.48 545.80 771.48Q540.22 771.48 535.26 772.10L535.26 772.10L377.16 383.98Q368.48 361.66 357.94 353.29Q347.40 344.92 338.10 344.30L338.10 344.30L338.10 331.90Q356.70 332.52 381.81 333.14Q406.92 333.76 432.34 333.76L432.34 333.76Q460.86 333.76 485.97 333.14Q511.08 332.52 526.58 331.90L526.58 331.90L526.58 344.30Q506.74 344.92 495.58 348.95Q484.42 352.98 483.18 363.83Q481.94 374.68 490.62 396.38L490.62 396.38L603.46 683.44L590.44 698.94L676 468.30Q692.74 421.80 693.36 395.14Q693.98 368.48 680.34 356.70Q666.70 344.92 641.28 344.30L641.28 344.30L641.28 331.90Q662.36 332.52 680.96 333.14Q699.56 333.76 718.78 333.76L718.78 333.76Q732.42 333.76 744.51 333.14Q756.60 332.52 765.90 331.90Z" fill="#E63946"/>
  <!-- Blue V (middle offset) -->
  <path d="M737.90 303.90L737.90 303.90L737.90 316.30Q724.26 321.26 709.07 338.00Q693.88 354.74 680.86 390.08L680.86 390.08L550.04 744.10Q545.08 743.48 539.50 743.48Q533.92 743.48 528.34 743.48L528.34 743.48Q523.38 743.48 517.80 743.48Q512.22 743.48 507.26 744.10L507.26 744.10L349.16 355.98Q340.48 333.66 329.94 325.29Q319.40 316.92 310.10 316.30L310.10 316.30L310.10 303.90Q328.70 304.52 353.81 305.14Q378.92 305.76 404.34 305.76L404.34 305.76Q432.86 305.76 457.97 305.14Q483.08 304.52 498.58 303.90L498.58 303.90L498.58 316.30Q478.74 316.92 467.58 320.95Q456.42 324.98 455.18 335.83Q453.94 346.68 462.62 368.38L462.62 368.38L575.46 655.44L562.44 670.94L648 440.30Q664.74 393.80 665.36 367.14Q665.98 340.48 652.34 328.70Q638.70 316.92 613.28 316.30L613.28 316.30L613.28 303.90Q634.36 304.52 652.96 305.14Q671.56 305.76 690.78 305.76L690.78 305.76Q704.42 305.76 716.51 305.14Q728.60 304.52 737.90 303.90Z" fill="#2E86AB"/>
  <!-- Yellow V (smallest offset) -->
  <path d="M711.90 277.90L711.90 277.90L711.90 290.30Q698.26 295.26 683.07 312.00Q667.88 328.74 654.86 364.08L654.86 364.08L524.04 718.10Q519.08 717.48 513.50 717.48Q507.92 717.48 502.34 717.48L502.34 717.48Q497.38 717.48 491.80 717.48Q486.22 717.48 481.26 718.10L481.26 718.10L323.16 329.98Q314.48 307.66 303.94 299.29Q293.40 290.92 284.10 290.30L284.10 290.30L284.10 277.90Q302.70 278.52 327.81 279.14Q352.92 279.76 378.34 279.76L378.34 279.76Q406.86 279.76 431.97 279.14Q457.08 278.52 472.58 277.90L472.58 277.90L472.58 290.30Q452.74 290.92 441.58 294.95Q430.42 298.98 429.18 309.83Q427.94 320.68 436.62 342.38L436.62 342.38L549.46 629.44L536.44 644.94L622 414.30Q638.74 367.80 639.36 341.14Q639.98 314.48 626.34 302.70Q612.70 290.92 587.28 290.30L587.28 290.30L587.28 277.90Q608.36 278.52 626.96 279.14Q645.56 279.76 664.78 279.76L664.78 279.76Q678.42 279.76 690.51 279.14Q702.60 278.52 711.90 277.90Z" fill="#FFD600"/>
  <!-- Black V (foreground, no offset) -->
  <path d="M685.90 251.90L685.90 251.90L685.90 264.30Q672.26 269.26 657.07 286.00Q641.88 302.74 628.86 338.08L628.86 338.08L498.04 692.10Q493.08 691.48 487.50 691.48Q481.92 691.48 476.34 691.48L476.34 691.48Q471.38 691.48 465.80 691.48Q460.22 691.48 455.26 692.10L455.26 692.10L297.16 303.98Q288.48 281.66 277.94 273.29Q267.40 264.92 258.10 264.30L258.10 264.30L258.10 251.90Q276.70 252.52 301.81 253.14Q326.92 253.76 352.34 253.76L352.34 253.76Q380.86 253.76 405.97 253.14Q431.08 252.52 446.58 251.90L446.58 251.90L446.58 264.30Q426.74 264.92 415.58 268.95Q404.42 272.98 403.18 283.83Q401.94 294.68 410.62 316.38L410.62 316.38L523.46 603.44L510.44 618.94L596 388.30Q612.74 341.80 613.36 315.14Q613.98 288.48 600.34 276.70Q586.70 264.92 561.28 264.30L561.28 264.30L561.28 251.90Q582.36 252.52 600.96 253.14Q619.56 253.76 638.78 253.76L638.78 253.76Q652.42 253.76 664.51 253.14Q676.60 252.52 685.90 251.90Z" fill="#1C1C1E"/>
</svg>