<svg xmlns="http://www.w3.org/2000/svg" width="1024" height="1024" viewBox="0 0 1024 1024">
  <rect width="1024" height="1024" fill="#F5F0EB"/>
  <!-- Red V (furthest offset — bottom-right) -->
  <path d="M744.90 310.90L744.90 310.90L744.90 323.30Q731.26 328.26 716.07 345.00Q700.88 361.74 687.86 397.08L687.86 397.08L557.04 751.10Q552.08 750.48 546.50 750.48Q540.92 750.48 535.34 750.48L535.34 750.48Q530.38 750.48 524.80 750.48Q519.22 750.48 514.26 751.10L514.26 751.10L356.16 362.98Q347.48 340.66 336.94 332.29Q326.40 323.92 317.10 323.30L317.10 323.30L317.10 310.90Q335.70 311.52 360.81 312.14Q385.92 312.76 411.34 312.76L411.34 312.76Q439.86 312.76 464.97 312.14Q490.08 311.52 505.58 310.90L505.58 310.90L505.58 323.30Q485.74 323.92 474.58 327.95Q463.42 331.98 462.18 342.83Q460.94 353.68 469.62 375.38L469.62 375.38L582.46 662.44L569.44 677.94L655 447.30Q671.74 400.80 672.36 374.14Q672.98 347.48 659.34 335.70Q645.70 323.92 620.28 323.30L620.28 323.30L620.28 310.90Q641.36 311.52 659.96 312.14Q678.56 312.76 697.78 312.76L697.78 312.76Q711.42 312.76 723.51 312.14Q735.60 311.52 744.90 310.90Z" fill="#E63946"/>
  <!-- Blue V (middle offset) -->
  <path d="M731.90 297.90L731.90 297.90L731.90 310.30Q718.26 315.26 703.07 332.00Q687.88 348.74 674.86 384.08L674.86 384.08L544.04 738.10Q539.08 737.48 533.50 737.48Q527.92 737.48 522.34 737.48L522.34 737.48Q517.38 737.48 511.80 737.48Q506.22 737.48 501.26 738.10L501.26 738.10L343.16 349.98Q334.48 327.66 323.94 319.29Q313.40 310.92 304.10 310.30L304.10 310.30L304.10 297.90Q322.70 298.52 347.81 299.14Q372.92 299.76 398.34 299.76L398.34 299.76Q426.86 299.76 451.97 299.14Q477.08 298.52 492.58 297.90L492.58 297.90L492.58 310.30Q472.74 310.92 461.58 314.95Q450.42 318.98 449.18 329.83Q447.94 340.68 456.62 362.38L456.62 362.38L569.46 649.44L556.44 664.94L642 434.30Q658.74 387.80 659.36 361.14Q659.98 334.48 646.34 322.70Q632.70 310.92 607.28 310.30L607.28 310.30L607.28 297.90Q628.36 298.52 646.96 299.14Q665.56 299.76 684.78 299.76L684.78 299.76Q698.42 299.76 710.51 299.14Q722.60 298.52 731.90 297.90Z" fill="#2E86AB"/>
  <!-- Yellow V (smallest offset) -->
  <path d="M719.90 285.90L719.90 285.90L719.90 298.30Q706.26 303.26 691.07 320.00Q675.88 336.74 662.86 372.08L662.86 372.08L532.04 726.10Q527.08 725.48 521.50 725.48Q515.92 725.48 510.34 725.48L510.34 725.48Q505.38 725.48 499.80 725.48Q494.22 725.48 489.26 726.10L489.26 726.10L331.16 337.98Q322.48 315.66 311.94 307.29Q301.40 298.92 292.10 298.30L292.10 298.30L292.10 285.90Q310.70 286.52 335.81 287.14Q360.92 287.76 386.34 287.76L386.34 287.76Q414.86 287.76 439.97 287.14Q465.08 286.52 480.58 285.90L480.58 285.90L480.58 298.30Q460.74 298.92 449.58 302.95Q438.42 306.98 437.18 317.83Q435.94 328.68 444.62 350.38L444.62 350.38L557.46 637.44L544.44 652.94L630 422.30Q646.74 375.80 647.36 349.14Q647.98 322.48 634.34 310.70Q620.70 298.92 595.28 298.30L595.28 298.30L595.28 285.90Q616.36 286.52 634.96 287.14Q653.56 287.76 672.78 287.76L672.78 287.76Q686.42 287.76 698.51 287.14Q710.60 286.52 719.90 285.90Z" fill="#FFD600"/>
  <!-- Black V (foreground, no offset) -->
  <path d="M706.90 272.90L706.90 272.90L706.90 285.30Q693.26 290.26 678.07 307.00Q662.88 323.74 649.86 359.08L649.86 359.08L519.04 713.10Q514.08 712.48 508.50 712.48Q502.92 712.48 497.34 712.48L497.34 712.48Q492.38 712.48 486.80 712.48Q481.22 712.48 476.26 713.10L476.26 713.10L318.16 324.98Q309.48 302.66 298.94 294.29Q288.40 285.92 279.10 285.30L279.10 285.30L279.10 272.90Q297.70 273.52 322.81 274.14Q347.92 274.76 373.34 274.76L373.34 274.76Q401.86 274.76 426.97 274.14Q452.08 273.52 467.58 272.90L467.58 272.90L467.58 285.30Q447.74 285.92 436.58 289.95Q425.42 293.98 424.18 304.83Q422.94 315.68 431.62 337.38L431.62 337.38L544.46 624.44L531.44 639.94L617 409.30Q633.74 362.80 634.36 336.14Q634.98 309.48 621.34 297.70Q607.70 285.92 582.28 285.30L582.28 285.30L582.28 272.90Q603.36 273.52 621.96 274.14Q640.56 274.76 659.78 274.76L659.78 274.76Q673.42 274.76 685.51 274.14Q697.60 273.52 706.90 272.90Z" fill="#1C1C1E"/>
</svg>