<svg xmlns="http://www.w3.org/2000/svg" viewBox="0 0 378 140">
  <ellipse cx="70.079" cy="70" rx="70.079" ry="70" fill="#202830"/>
  <ellipse cx="189" cy="70" rx="70.079" ry="70" fill="#202830"/>
  <ellipse cx="307.921" cy="70" rx="70.079" ry="70" fill="#202830"/>
  <path d="M129.539,107.063C122.81,96.315 118.921,83.611 118.921,70 118.921,56.389 122.81,43.685 129.539,32.937 136.268,43.685 140.157,56.389 140.157,70 140.157,83.611 136.268,96.315 129.539,107.063Z" fill="#fff"/>
  <path d="M248.461,32.937C255.19,43.685 259.079,56.389 259.079,70 259.079,83.611 255.19,96.315 248.461,107.063 241.732,96.315 237.843,83.611 237.843,70 237.843,56.389 241.732,43.685 248.461,32.937Z" fill="#fff"/>
</svg>
